<svg width="22" height="16" viewBox="0 0 22 16" fill="none" xmlns="http://www.w3.org/2000/svg">
<path d="M0.157695 9.83H6.1637C6.26636 10.138 6.56703 10.402 7.0657 10.622C7.56436 10.8273 8.2317 10.9887 9.0677 11.106C9.91836 11.2087 10.901 11.26 12.0157 11.26C13.1157 11.26 13.981 11.2307 14.6117 11.172C15.257 11.0987 15.7117 10.9813 15.9757 10.82C16.2397 10.644 16.3717 10.4093 16.3717 10.116C16.3717 9.83733 16.159 9.62467 15.7337 9.478C15.3084 9.31667 14.553 9.20667 13.4677 9.148C12.3824 9.08933 10.857 9.06 8.8917 9.06C7.42503 9.06 6.15636 8.994 5.0857 8.862C4.0297 8.71533 3.15703 8.49533 2.4677 8.202C1.79303 7.894 1.29436 7.51267 0.971695 7.058C0.649029 6.58867 0.487695 6.03133 0.487695 5.386C0.487695 4.27133 0.861695 3.35467 1.6097 2.636C2.37236 1.90267 3.51636 1.36 5.0417 1.008C6.5817 0.641333 8.50303 0.458 10.8057 0.458C14.179 0.458 16.753 0.949333 18.5277 1.932C20.317 2.9 21.2117 4.30067 21.2117 6.134H15.5137C15.4404 5.65 14.9857 5.28333 14.1497 5.034C13.3137 4.77 12.1257 4.638 10.5857 4.638C9.06036 4.638 7.9237 4.726 7.1757 4.902C6.44236 5.078 6.0757 5.37867 6.0757 5.804C6.0757 6.024 6.17836 6.2 6.3837 6.332C6.58903 6.464 6.94103 6.574 7.4397 6.662C7.95303 6.73533 8.6717 6.78667 9.5957 6.816C10.5197 6.84533 11.693 6.86 13.1157 6.86C14.685 6.86 16.0197 6.94067 17.1197 7.102C18.2197 7.24867 19.107 7.476 19.7817 7.784C20.471 8.092 20.9697 8.488 21.2777 8.972C21.5857 9.44133 21.7397 9.99867 21.7397 10.644C21.7397 11.7587 21.3877 12.668 20.6837 13.372C19.9797 14.076 18.865 14.5967 17.3397 14.934C15.8144 15.2713 13.8197 15.44 11.3557 15.44C9.96236 15.44 8.67903 15.3593 7.5057 15.198C6.34703 15.0367 5.31303 14.802 4.4037 14.494C3.49436 14.1713 2.72436 13.7827 2.0937 13.328C1.46303 12.8587 0.979029 12.338 0.641695 11.766C0.319029 11.1793 0.157695 10.534 0.157695 9.83Z" fill="#B1663C"/>
</svg>
