<svg width="47" height="16" viewBox="0 0 47 16" fill="none" xmlns="http://www.w3.org/2000/svg">
<path d="M0.121563 9.83H6.12756C6.23023 10.138 6.5309 10.402 7.02956 10.622C7.52823 10.8273 8.19556 10.9887 9.03156 11.106C9.88223 11.2087 10.8649 11.26 11.9796 11.26C13.0796 11.26 13.9449 11.2307 14.5756 11.172C15.2209 11.0987 15.6756 10.9813 15.9396 10.82C16.2036 10.644 16.3356 10.4093 16.3356 10.116C16.3356 9.83733 16.1229 9.62467 15.6976 9.478C15.2722 9.31667 14.5169 9.20667 13.4316 9.148C12.3462 9.08933 10.8209 9.06 8.85556 9.06C7.3889 9.06 6.12023 8.994 5.04956 8.862C3.99356 8.71533 3.1209 8.49533 2.43156 8.202C1.7569 7.894 1.25823 7.51267 0.935563 7.058C0.612896 6.58867 0.451563 6.03133 0.451563 5.386C0.451563 4.27133 0.825563 3.35467 1.57356 2.636C2.33623 1.90267 3.48023 1.36 5.00556 1.008C6.54556 0.641333 8.4669 0.458 10.7696 0.458C14.1429 0.458 16.7169 0.949333 18.4916 1.932C20.2809 2.9 21.1756 4.30067 21.1756 6.134H15.4776C15.4042 5.65 14.9496 5.28333 14.1136 5.034C13.2776 4.77 12.0896 4.638 10.5496 4.638C9.02423 4.638 7.88756 4.726 7.13956 4.902C6.40623 5.078 6.03956 5.37867 6.03956 5.804C6.03956 6.024 6.14223 6.2 6.34756 6.332C6.5529 6.464 6.9049 6.574 7.40356 6.662C7.9169 6.73533 8.63556 6.78667 9.55956 6.816C10.4836 6.84533 11.6569 6.86 13.0796 6.86C14.6489 6.86 15.9836 6.94067 17.0836 7.102C18.1836 7.24867 19.0709 7.476 19.7456 7.784C20.4349 8.092 20.9336 8.488 21.2416 8.972C21.5496 9.44133 21.7036 9.99867 21.7036 10.644C21.7036 11.7587 21.3516 12.668 20.6476 13.372C19.9436 14.076 18.8289 14.5967 17.3036 14.934C15.7782 15.2713 13.7836 15.44 11.3196 15.44C9.92623 15.44 8.6429 15.3593 7.46956 15.198C6.3109 15.0367 5.2769 14.802 4.36756 14.494C3.45823 14.1713 2.68823 13.7827 2.05756 13.328C1.4269 12.8587 0.942896 12.338 0.605563 11.766C0.282896 11.1793 0.121563 10.534 0.121563 9.83ZM24.1162 15V0.919999H37.9762C40.8215 0.919999 42.9188 1.19867 44.2682 1.756C45.6175 2.31333 46.2922 3.28133 46.2922 4.66C46.2922 5.54 45.9988 6.21467 45.4122 6.684C44.8402 7.15333 44.0115 7.48333 42.9262 7.674C41.8555 7.85 40.5648 7.96 39.0542 8.004L39.2302 7.828C40.3302 7.828 41.3495 7.85733 42.2882 7.916C43.2268 7.97467 44.0482 8.10667 44.7522 8.312C45.4562 8.51733 46.0062 8.83267 46.4022 9.258C46.7982 9.68333 46.9962 10.27 46.9962 11.018C46.9962 11.9273 46.6735 12.6753 46.0282 13.262C45.3828 13.8487 44.4662 14.2887 43.2782 14.582C42.0902 14.8607 40.6895 15 39.0762 15H24.1162ZM29.6162 10.864H39.0762C39.8535 10.864 40.4108 10.7907 40.7482 10.644C41.1002 10.4973 41.2762 10.2627 41.2762 9.94C41.2762 9.72 41.1955 9.544 41.0342 9.412C40.8875 9.28 40.6528 9.18467 40.3302 9.126C40.0075 9.05267 39.5895 9.016 39.0762 9.016H29.6162V10.864ZM29.6162 6.904H38.1522C38.9295 6.904 39.4868 6.83067 39.8242 6.684C40.1762 6.53733 40.3522 6.30267 40.3522 5.98C40.3522 5.64267 40.1762 5.408 39.8242 5.276C39.4868 5.12933 38.9295 5.056 38.1522 5.056H29.6162V6.904Z" fill="#B1663C"/>
</svg>
